<svg width="24" height="24" viewBox="0 0 24 24" fill="none" xmlns="http://www.w3.org/2000/svg">
<path d="M20.8545 15.331L17.0825 21.486C16.6683 22.166 16.1044 22.7426 15.4338 23.1718C14.7632 23.601 14.0035 23.8716 13.2125 23.963C13.0041 23.9877 12.7944 24.0001 12.5845 24C11.51 23.9985 10.4622 23.665 9.58454 23.045C8.6776 23.7245 7.55727 24.0566 6.42655 23.9812C5.29583 23.9058 4.22951 23.4279 3.42079 22.6341C2.61207 21.8402 2.11446 20.783 2.0181 19.6538C1.92175 18.5247 2.23303 17.3984 2.89554 16.479L1.58054 15.166C1.01904 14.6045 0.591859 13.9232 0.330994 13.1731C0.0701301 12.4231 -0.0176572 11.6238 0.0742068 10.835C0.166071 10.0462 0.435205 9.28842 0.861454 8.61841C1.2877 7.94839 1.86002 7.38349 2.53554 6.96602L8.30254 3.40002C9.86475 2.3988 11.7019 1.91337 13.5548 2.01223C15.4077 2.1111 17.1827 2.78925 18.6295 3.95102L20.2885 2.29202C20.3808 2.19651 20.4911 2.12033 20.6131 2.06792C20.7351 2.01551 20.8664 1.98792 20.9991 1.98677C21.1319 1.98562 21.2636 2.01092 21.3865 2.0612C21.5094 2.11148 21.621 2.18573 21.7149 2.27963C21.8088 2.37352 21.8831 2.48517 21.9334 2.60807C21.9836 2.73096 22.0089 2.86264 22.0078 2.99542C22.0066 3.1282 21.9791 3.25942 21.9266 3.38143C21.8742 3.50343 21.7981 3.61377 21.7025 3.70602L20.0455 5.36402C21.1569 6.75626 21.8275 8.44844 21.9717 10.224C22.1158 11.9996 21.7268 13.7778 20.8545 15.331V15.331ZM8.06054 21.647L4.34154 17.927C4.05092 18.4468 3.93883 19.0475 4.02246 19.6371C4.1061 20.2267 4.38084 20.7726 4.80454 21.191C5.23196 21.597 5.77562 21.8593 6.35944 21.941C6.94326 22.0228 7.53803 21.92 8.06054 21.647V21.647ZM17.9815 6.04702C16.8711 4.92586 15.4093 4.22004 13.8407 4.04766C12.2722 3.87528 10.692 4.24678 9.36454 5.10002L3.58754 8.66602C3.16858 8.92499 2.81364 9.27538 2.5493 9.69097C2.28496 10.1066 2.11806 10.5766 2.06112 11.0658C2.00417 11.555 2.05865 12.0508 2.22047 12.516C2.38229 12.9812 2.64726 13.4037 2.99554 13.752L10.2855 21.043C10.6344 21.3923 11.0579 21.6578 11.5241 21.8198C11.9904 21.9818 12.4873 22.036 12.9776 21.9782C13.4678 21.9204 13.9385 21.7523 14.3544 21.4864C14.7703 21.2205 15.1204 20.8638 15.3785 20.443L19.1335 14.318C19.867 13.0007 20.1512 11.4804 19.9434 9.98711C19.7355 8.49383 19.0468 7.10892 17.9815 6.04202V6.04702ZM19.2605 24C19.0494 24.0004 18.8435 23.9339 18.6724 23.8101C18.5013 23.6863 18.3738 23.5115 18.3082 23.3107C18.2426 23.11 18.2422 22.8936 18.3071 22.6927C18.372 22.4917 18.4989 22.3164 18.6695 22.192C20.4205 20.8756 21.6056 18.9427 21.9845 16.785C22.0111 16.6551 22.0632 16.5318 22.1379 16.4223C22.2126 16.3127 22.3083 16.2191 22.4195 16.1469C22.5306 16.0746 22.6551 16.0252 22.7855 16.0016C22.9159 15.9779 23.0498 15.9803 23.1793 16.0088C23.3088 16.0373 23.4313 16.0913 23.5397 16.1676C23.6481 16.2439 23.7403 16.341 23.8109 16.4532C23.8814 16.5655 23.929 16.6906 23.9507 16.8214C23.9725 16.9522 23.968 17.086 23.9375 17.215C23.4476 19.8467 21.9889 22.1991 19.8495 23.808C19.6785 23.9328 19.4722 24 19.2605 24ZM0.995543 5.73902C0.810846 5.7382 0.629985 5.68624 0.473014 5.5889C0.316043 5.49157 0.189095 5.35267 0.106247 5.18759C0.0233987 5.02251 -0.0121134 4.83772 0.00364832 4.65369C0.01941 4.46967 0.0858297 4.2936 0.195543 4.14502C1.82652 1.96561 4.22736 0.490343 6.90854 0.0200208C7.16845 -0.0330225 7.43879 0.0193565 7.66009 0.165635C7.88138 0.311913 8.0355 0.540109 8.08854 0.800021C8.14159 1.05993 8.08921 1.33027 7.94293 1.55156C7.79665 1.77286 7.56845 1.92698 7.30854 1.98002C5.10652 2.34364 3.13078 3.54565 1.79554 5.33402C1.70292 5.45914 1.58237 5.5609 1.44348 5.63121C1.30459 5.70152 1.15121 5.73844 0.995543 5.73902V5.73902Z" fill="black"/>
</svg>
