<svg width="18" height="24" viewBox="0 0 18 24" fill="none" xmlns="http://www.w3.org/2000/svg">
<path d="M14.9993 2.28613C13.7787 1.19568 12.2839 0.458716 10.6756 0.154564C9.06739 -0.149588 7.40666 -0.00941759 5.87216 0.559992C4.33765 1.1294 2.98748 2.10649 1.96693 3.3861C0.946383 4.66572 0.294108 6.19941 0.0802996 7.82213C-0.111721 9.24498 0.0418512 10.6931 0.528018 12.0441C1.01419 13.395 1.81864 14.6089 2.8733 15.5831C3.5255 16.1551 4.05178 16.8563 4.41878 17.6422C4.78579 18.4282 4.98551 19.2819 5.0053 20.1491V20.3101C5.00636 21.2885 5.39546 22.2264 6.08724 22.9182C6.77903 23.61 7.71698 23.9991 8.6953 24.0001H9.3153C10.2936 23.9991 11.2316 23.61 11.9234 22.9182C12.6151 22.2264 13.0042 21.2885 13.0053 20.3101V19.7611C13.0203 18.9946 13.2007 18.2403 13.5341 17.55C13.8676 16.8596 14.3462 16.2494 14.9373 15.7611C15.8959 14.9216 16.6651 13.8879 17.1941 12.7286C17.723 11.5693 17.9996 10.3109 18.0054 9.0366C18.0113 7.76235 17.7463 6.5014 17.2281 5.33729C16.7098 4.17317 15.9501 3.13247 14.9993 2.28413V2.28613ZM9.3153 22.0001H8.6953C8.24725 21.9996 7.8177 21.8214 7.50087 21.5046C7.18405 21.1877 7.00583 20.7582 7.0053 20.3101C7.0053 20.3101 6.9983 20.0501 6.9973 20.0001H11.0053V20.3101C11.0048 20.7582 10.8265 21.1877 10.5097 21.5046C10.1929 21.8214 9.76335 21.9996 9.3153 22.0001ZM13.6153 14.2591C12.4767 15.2467 11.6545 16.5479 11.2513 18.0001H10.0053V10.8161C10.5882 10.61 11.0932 10.2289 11.4512 9.72483C11.8092 9.22076 12.0027 8.61839 12.0053 8.00013C12.0053 7.73492 11.8999 7.48056 11.7124 7.29303C11.5249 7.10549 11.2705 7.00013 11.0053 7.00013C10.7401 7.00013 10.4857 7.10549 10.2982 7.29303C10.1107 7.48056 10.0053 7.73492 10.0053 8.00013C10.0053 8.26535 9.89994 8.5197 9.71241 8.70724C9.52487 8.89478 9.27052 9.00013 9.0053 9.00013C8.74008 9.00013 8.48573 8.89478 8.29819 8.70724C8.11066 8.5197 8.0053 8.26535 8.0053 8.00013C8.0053 7.73492 7.89994 7.48056 7.71241 7.29303C7.52487 7.10549 7.27052 7.00013 7.0053 7.00013C6.74008 7.00013 6.48573 7.10549 6.29819 7.29303C6.11066 7.48056 6.0053 7.73492 6.0053 8.00013C6.00786 8.61839 6.20138 9.22076 6.55939 9.72483C6.91739 10.2289 7.42239 10.61 8.0053 10.8161V18.0001H6.6833C6.23229 16.5093 5.38642 15.1683 4.2353 14.1191C3.25825 13.2087 2.56202 12.0378 2.22877 10.7446C1.89551 9.45141 1.93914 8.08985 2.35451 6.82063C2.76987 5.5514 3.53964 4.42748 4.57297 3.5815C5.60629 2.73551 6.86006 2.20277 8.1863 2.04613C8.46123 2.01544 8.73766 2.00008 9.0143 2.00013C10.7319 1.99503 12.39 2.62876 13.6663 3.77813C14.406 4.43773 14.997 5.24702 15.4002 6.15236C15.8035 7.05769 16.0096 8.0384 16.0051 9.02945C16.0005 10.0205 15.7854 10.9993 15.3739 11.9009C14.9624 12.8025 14.364 13.6063 13.6183 14.2591H13.6153Z" fill="black"/>
</svg>
