<svg width="24" height="23" viewBox="0 0 24 23" fill="none" xmlns="http://www.w3.org/2000/svg">
<path d="M21.4989 12.932C23.0379 11.4481 23.9352 9.42093 23.9989 7.284C23.9989 1.63 21.2319 1.02 20.0429 1.02C17.0749 1.02 14.1589 3.92 12.0019 6.541C9.86089 3.942 6.9359 1.02 3.9599 1.02C-0.189094 0.76 -1.70709 9.091 2.5049 12.933C2.6809 13.107 2.8639 13.27 3.0489 13.423C2.16832 14.2671 1.54078 15.3403 1.23692 16.5216C0.933049 17.703 0.964907 18.9457 1.3289 20.11C1.49706 20.6829 1.79072 21.2112 2.18856 21.6564C2.58641 22.1017 3.07843 22.4527 3.6289 22.684C4.16282 22.9124 4.74087 23.0192 5.32116 22.9965C5.90145 22.9739 6.46942 22.8224 6.9839 22.553C8.4636 21.7856 9.81752 20.7969 10.9989 19.621V22C10.9989 22.2652 11.1042 22.5196 11.2918 22.7071C11.4793 22.8946 11.7337 23 11.9989 23C12.2641 23 12.5185 22.8946 12.706 22.7071C12.8935 22.5196 12.9989 22.2652 12.9989 22V19.621C14.1809 20.7972 15.5359 21.7856 17.0169 22.552C17.5312 22.8217 18.0992 22.9735 18.6795 22.9963C19.2598 23.0192 19.8379 22.9125 20.3719 22.684C20.9222 22.4527 21.4141 22.1018 21.812 21.6568C22.2098 21.2118 22.5035 20.6837 22.6719 20.111C23.0482 18.9453 23.0909 17.6975 22.7953 16.5088C22.4996 15.32 21.8774 14.2377 20.9989 13.384C21.1699 13.242 21.3369 13.092 21.4989 12.932ZM10.9989 15.636C10.9989 17.114 8.91889 19.278 6.0519 20.782C5.7997 20.9156 5.52052 20.9905 5.23528 21.0009C4.95004 21.0113 4.66616 20.9569 4.4049 20.842C4.12743 20.7249 3.87953 20.5475 3.67922 20.3227C3.47892 20.0978 3.33123 19.8311 3.2469 19.542C2.95958 18.643 2.95573 17.6774 3.23587 16.7762C3.51601 15.8749 4.06658 15.0817 4.8129 14.504C5.56984 14.8251 6.3827 14.9936 7.2049 15C8.5039 15.0178 9.79351 14.7775 10.9989 14.293V15.636ZM10.9989 11.985C9.86741 12.7244 8.52814 13.0802 7.1789 13C6.56133 12.9861 5.95302 12.8469 5.3909 12.5908C4.82878 12.3346 4.32458 11.9669 3.9089 11.51C2.75638 10.398 2.07602 8.88511 2.0089 7.285C2.0089 4.575 2.7219 3.021 3.9639 3.021C5.7449 3.02 8.1049 4.858 10.9989 8.491V11.985ZM12.9989 8.5C15.8789 4.87 18.2509 3.02 20.0429 3.02C21.2859 3.02 21.9989 4.574 21.9989 7.284C21.9316 8.88406 21.2512 10.3969 20.0989 11.509C19.2597 12.4108 18.0996 12.9464 16.8689 13C15.5033 13.08 14.1477 12.7227 12.9989 11.98V8.5ZM20.7509 19.548C20.6667 19.8372 20.519 20.1039 20.3187 20.3288C20.1184 20.5537 19.8704 20.7311 19.5929 20.848C19.3315 20.9627 19.0476 21.0168 18.7624 21.0063C18.4772 20.9957 18.198 20.9207 17.9459 20.787C15.0789 19.278 12.9989 17.114 12.9989 15.636V14.291C14.206 14.777 15.4977 15.018 16.7989 15C17.6333 14.9977 18.4583 14.8242 19.2229 14.49C19.9733 15.0675 20.5242 15.8653 20.7982 16.7717C21.0723 17.6781 21.0557 18.6475 20.7509 19.544V19.548ZM9.99889 2C9.99889 1.46957 10.2096 0.960859 10.5847 0.585786C10.9598 0.210714 11.4685 0 11.9989 0C12.5293 0 13.038 0.210714 13.4131 0.585786C13.7882 0.960859 13.9989 1.46957 13.9989 2C13.9989 2.53043 13.7882 3.03914 13.4131 3.41421C13.038 3.78929 12.5293 4 11.9989 4C11.4685 4 10.9598 3.78929 10.5847 3.41421C10.2096 3.03914 9.99889 2.53043 9.99889 2Z" fill="black"/>
</svg>
