<svg width="24" height="23" viewBox="0 0 24 23" fill="none" xmlns="http://www.w3.org/2000/svg">
<path d="M23.8998 10.4542C23.5069 7.42957 21.9771 4.66808 19.6212 2.73099C17.2653 0.793897 14.2602 -0.17344 11.2167 0.0255971C8.17322 0.224634 5.31972 1.57511 3.23619 3.80253C1.15266 6.02995 -0.00452438 8.96716 -0.000170087 12.0171C-0.00593449 13.6497 0.324888 15.2658 0.971645 16.7648C1.6184 18.2637 2.56721 19.6133 3.75883 20.7291C4.67017 21.5729 5.87099 22.034 7.11283 22.0171H16.8798C18.1918 22.0202 19.4523 21.5069 20.3888 20.5881C21.7235 19.2896 22.7361 17.6969 23.3457 15.9374C23.9554 14.1778 24.1451 12.3001 23.8998 10.4542V10.4542ZM18.9908 19.1541C18.4282 19.7085 17.6697 20.0186 16.8798 20.0171H7.11283C6.3821 20.0322 5.67332 19.767 5.13183 19.2761C4.1391 18.3463 3.34865 17.2218 2.80979 15.9729C2.27092 14.7239 1.9952 13.3774 1.99983 12.0171C2.00081 10.6094 2.2986 9.21766 2.87377 7.93275C3.44893 6.64785 4.28855 5.49866 5.33783 4.56015C7.16097 2.91606 9.53087 2.00952 11.9858 2.01715C12.3781 2.01731 12.77 2.03935 13.1598 2.08315C15.0354 2.30099 16.811 3.04571 18.2808 4.23107C19.7506 5.41643 20.8545 6.99393 21.4647 8.78084C22.0748 10.5677 22.1663 12.491 21.7285 14.3277C21.2907 16.1645 20.3415 17.8396 18.9908 19.1591V19.1541ZM7.80683 16.3021C7.99646 16.4878 8.10457 16.7412 8.10739 17.0065C8.1102 17.2719 8.00748 17.5275 7.82183 17.7171C7.63618 17.9068 7.3828 18.0149 7.11744 18.0177C6.85207 18.0205 6.59646 17.9178 6.40683 17.7321C5.27179 16.6203 4.49352 15.1957 4.17124 13.6399C3.84895 12.0841 3.99725 10.4675 4.59721 8.99627C5.19718 7.52504 6.22165 6.26579 7.54003 5.37903C8.8584 4.49227 10.411 4.01816 11.9998 4.01715C12.3823 4.01704 12.7642 4.04411 13.1428 4.09815C13.2729 4.11689 13.3979 4.16107 13.5109 4.22817C13.6238 4.29526 13.7224 4.38395 13.8011 4.48916C13.8797 4.59438 13.9369 4.71406 13.9693 4.84138C14.0017 4.96869 14.0086 5.10114 13.9898 5.23115C13.9726 5.36188 13.9294 5.48784 13.8628 5.60164C13.7962 5.71543 13.7075 5.81475 13.6019 5.89376C13.4964 5.97277 13.3761 6.02987 13.2481 6.06171C13.1201 6.09355 12.9871 6.09948 12.8568 6.07915C11.6053 5.90039 10.3293 6.12151 9.21092 6.71095C8.09253 7.3004 7.1889 8.22804 6.62899 9.3615C6.06908 10.495 5.88149 11.7763 6.09301 13.0227C6.30452 14.2691 6.90433 15.4169 7.80683 16.3021V16.3021ZM19.9188 10.8742C19.9729 11.2528 19.9999 11.6347 19.9998 12.0171C20.0031 13.0828 19.7915 14.1382 19.3778 15.1203C18.9641 16.1024 18.3566 16.991 17.5918 17.7331C17.4019 17.9188 17.1461 18.0214 16.8805 18.0184C16.615 18.0154 16.3615 17.907 16.1758 17.7171C15.9902 17.5273 15.8876 17.2714 15.8906 17.0058C15.8936 16.7403 16.0019 16.4868 16.1918 16.3011C16.8675 15.6426 17.3777 14.8335 17.6808 13.94C17.9839 13.0464 18.0713 12.0939 17.9358 11.1601C17.8979 10.8975 17.9659 10.6304 18.1248 10.4179C18.2838 10.2053 18.5206 10.0646 18.7833 10.0266C19.046 9.98872 19.313 10.0567 19.5256 10.2156C19.7382 10.3746 19.8789 10.6115 19.9168 10.8742H19.9188ZM13.9258 11.5051C14.0462 11.9379 14.0198 12.3983 13.8509 12.8145C13.6819 13.2307 13.3799 13.5792 12.9919 13.8056C12.604 14.0321 12.152 14.1236 11.7065 14.0661C11.2611 14.0085 10.8472 13.805 10.5296 13.4874C10.212 13.1698 10.0085 12.7559 9.95093 12.3104C9.89335 11.865 9.98492 11.413 10.2113 11.025C10.4378 10.6371 10.7863 10.3351 11.2025 10.1661C11.6187 9.99717 12.0791 9.97081 12.5118 10.0912L16.2928 6.31015C16.3851 6.21464 16.4954 6.13846 16.6174 6.08605C16.7394 6.03364 16.8707 6.00605 17.0034 6.0049C17.1362 6.00375 17.2679 6.02905 17.3908 6.07933C17.5137 6.12961 17.6253 6.20386 17.7192 6.29775C17.8131 6.39165 17.8874 6.5033 17.9377 6.6262C17.9879 6.74909 18.0132 6.88077 18.0121 7.01355C18.0109 7.14633 17.9833 7.27755 17.9309 7.39955C17.8785 7.52156 17.8023 7.6319 17.7068 7.72415L13.9258 11.5051Z" fill="black"/>
</svg>
