<svg width="24" height="20" viewBox="0 0 24 20" fill="none" xmlns="http://www.w3.org/2000/svg">
<path d="M18.9998 2.37018e-05H9.95584C9.19406 -0.00232971 8.44195 0.170605 7.7577 0.505446C7.07345 0.840288 6.47541 1.32806 6.00984 1.93102L0.209839 9.38602C0.0732849 9.56157 -0.000854492 9.77762 -0.000854492 10C-0.000854492 10.2224 0.0732849 10.4385 0.209839 10.614L6.00984 18.069C6.47541 18.672 7.07345 19.1598 7.7577 19.4946C8.44195 19.8294 9.19406 20.0024 9.95584 20H18.9998C20.3254 19.9984 21.5963 19.4711 22.5336 18.5338C23.471 17.5965 23.9983 16.3256 23.9998 15V5.00002C23.9983 3.67443 23.471 2.40358 22.5336 1.46624C21.5963 0.528906 20.3254 0.00161156 18.9998 2.37018e-05V2.37018e-05ZM21.9998 15C21.9998 15.7957 21.6838 16.5587 21.1212 17.1213C20.5586 17.684 19.7955 18 18.9998 18H9.95584C9.49875 18.0016 9.04742 17.898 8.63679 17.6972C8.22616 17.4964 7.86725 17.2038 7.58784 16.842L2.26684 10L7.58784 3.15802C7.86725 2.79627 8.22616 2.50366 8.63679 2.30286C9.04742 2.10205 9.49875 1.99843 9.95584 2.00002H18.9998C19.7955 2.00002 20.5586 2.31609 21.1212 2.8787C21.6838 3.44131 21.9998 4.20437 21.9998 5.00002V15ZM17.2068 8.20702L15.4138 10L17.2068 11.793C17.3024 11.8853 17.3785 11.9956 17.4309 12.1176C17.4833 12.2396 17.5109 12.3708 17.5121 12.5036C17.5132 12.6364 17.4879 12.7681 17.4377 12.891C17.3874 13.0139 17.3131 13.1255 17.2192 13.2194C17.1253 13.3133 17.0137 13.3876 16.8908 13.4378C16.7679 13.4881 16.6362 13.5134 16.5034 13.5123C16.3707 13.5111 16.2394 13.4835 16.1174 13.4311C15.9954 13.3787 15.8851 13.3025 15.7928 13.207L13.9998 11.414L12.2068 13.207C12.0182 13.3892 11.7656 13.49 11.5034 13.4877C11.2412 13.4854 10.9904 13.3803 10.805 13.1948C10.6196 13.0094 10.5144 12.7586 10.5122 12.4964C10.5099 12.2342 10.6107 11.9816 10.7928 11.793L12.5858 10L10.7928 8.20702C10.6107 8.01842 10.5099 7.76582 10.5122 7.50362C10.5144 7.24143 10.6196 6.99061 10.805 6.80521C10.9904 6.6198 11.2412 6.51463 11.5034 6.51235C11.7656 6.51007 12.0182 6.61087 12.2068 6.79302L13.9998 8.58602L15.7928 6.79302C15.9814 6.61087 16.234 6.51007 16.4962 6.51235C16.7584 6.51463 17.0093 6.6198 17.1947 6.80521C17.3801 6.99061 17.4852 7.24143 17.4875 7.50362C17.4898 7.76582 17.389 8.01842 17.2068 8.20702V8.20702Z" fill="black"/>
</svg>
