<svg width="11" height="24" viewBox="0 0 11 24" fill="none" xmlns="http://www.w3.org/2000/svg">
<path d="M2 4C3.10456 4 3.99999 3.10457 3.99999 2C3.99999 0.89543 3.10456 0 2 0C0.895429 0 0 0.89543 0 2C0 3.10457 0.895429 4 2 4Z" fill="black"/>
<path d="M2 14.0005C3.10456 14.0005 3.99999 13.1051 3.99999 12.0005C3.99999 10.8959 3.10456 10.0005 2 10.0005C0.895429 10.0005 0 10.8959 0 12.0005C0 13.1051 0.895429 14.0005 2 14.0005Z" fill="black"/>
<path d="M2 23.9995C3.10456 23.9995 3.99999 23.1041 3.99999 21.9995C3.99999 20.8949 3.10456 19.9995 2 19.9995C0.895429 19.9995 0 20.8949 0 21.9995C0 23.1041 0.895429 23.9995 2 23.9995Z" fill="black"/>
<path d="M9 4C10.1046 4 11 3.10457 11 2C11 0.89543 10.1046 0 9 0C7.89543 0 7 0.89543 7 2C7 3.10457 7.89543 4 9 4Z" fill="black"/>
<path d="M9 14.0005C10.1046 14.0005 11 13.1051 11 12.0005C11 10.8959 10.1046 10.0005 9 10.0005C7.89543 10.0005 7 10.8959 7 12.0005C7 13.1051 7.89543 14.0005 9 14.0005Z" fill="black"/>
<path d="M9 23.9995C10.1046 23.9995 11 23.1041 11 21.9995C11 20.8949 10.1046 19.9995 9 19.9995C7.89543 19.9995 7 20.8949 7 21.9995C7 23.1041 7.89543 23.9995 9 23.9995Z" fill="black"/>
</svg>
