<svg width="24" height="22" viewBox="0 0 24 22" fill="none" xmlns="http://www.w3.org/2000/svg">
<path d="M23.2709 8.40371C22.3682 6.92544 21.2294 5.60497 19.8999 4.49471L22.6999 1.69471C22.8821 1.50611 22.9829 1.25351 22.9806 0.991311C22.9783 0.729114 22.8732 0.478301 22.6877 0.292893C22.5023 0.107485 22.2515 0.00231622 21.9893 3.78026e-05C21.7271 -0.00224062 21.4745 0.0985538 21.2859 0.280712L18.2409 3.32971C16.3533 2.20853 14.1953 1.62418 11.9999 1.63971C5.80893 1.63971 2.28093 5.87771 0.728929 8.40371C0.249457 9.17922 -0.0045166 10.073 -0.0045166 10.9847C-0.0045166 11.8965 0.249457 12.7902 0.728929 13.5657C1.63169 15.044 2.77042 16.3645 4.09993 17.4747L1.29993 20.2747C1.20442 20.367 1.12824 20.4773 1.07583 20.5993C1.02342 20.7213 0.995833 20.8525 0.994679 20.9853C0.993525 21.1181 1.01883 21.2498 1.06911 21.3727C1.11939 21.4956 1.19364 21.6072 1.28753 21.7011C1.38143 21.795 1.49308 21.8693 1.61598 21.9195C1.73887 21.9698 1.87055 21.9951 2.00333 21.994C2.13611 21.9928 2.26733 21.9652 2.38933 21.9128C2.51134 21.8604 2.62168 21.7842 2.71393 21.6887L5.76593 18.6367C7.6512 19.7577 9.8066 20.3431 11.9999 20.3297C18.1909 20.3297 21.7189 16.0917 23.2709 13.5657C23.7504 12.7902 24.0044 11.8965 24.0044 10.9847C24.0044 10.073 23.7504 9.17922 23.2709 8.40371V8.40371ZM2.43293 12.5187C2.14806 12.0578 1.99718 11.5266 1.99718 10.9847C1.99718 10.4428 2.14806 9.91167 2.43293 9.45071C3.76693 7.28471 6.78193 3.63971 11.9999 3.63971C13.6602 3.63041 15.2972 4.03055 16.7659 4.80471L14.7529 6.81771C13.7929 6.18031 12.6418 5.89471 11.4952 6.00936C10.3485 6.12401 9.2768 6.63185 8.46193 7.44671C7.64707 8.26158 7.13922 9.33327 7.02457 10.4799C6.90993 11.6266 7.19553 12.7776 7.83293 13.7377L5.52293 16.0477C4.29803 15.0574 3.25277 13.8637 2.43293 12.5187V12.5187ZM14.9999 10.9847C14.9999 11.7804 14.6839 12.5434 14.1213 13.106C13.5586 13.6686 12.7956 13.9847 11.9999 13.9847C11.5544 13.983 11.1151 13.8804 10.7149 13.6847L14.6999 9.69971C14.8956 10.0999 14.9982 10.5392 14.9999 10.9847V10.9847ZM8.99993 10.9847C8.99993 10.1891 9.316 9.426 9.87861 8.86339C10.4412 8.30078 11.2043 7.98471 11.9999 7.98471C12.4454 7.98644 12.8847 8.089 13.2849 8.28471L9.29993 12.2697C9.10422 11.8695 9.00165 11.4302 8.99993 10.9847ZM21.5669 12.5187C20.2329 14.6847 17.2179 18.3297 11.9999 18.3297C10.3397 18.339 8.70269 17.9389 7.23393 17.1647L9.24693 15.1517C10.207 15.7891 11.358 16.0747 12.5047 15.9601C13.6514 15.8454 14.7231 15.3376 15.5379 14.5227C16.3528 13.7078 16.8606 12.6362 16.9753 11.4895C17.0899 10.3428 16.8043 9.19178 16.1669 8.23171L18.4769 5.92171C19.7018 6.91199 20.7471 8.10576 21.5669 9.45071C21.8518 9.91167 22.0027 10.4428 22.0027 10.9847C22.0027 11.5266 21.8518 12.0578 21.5669 12.5187V12.5187Z" fill="black"/>
</svg>
