<svg width="24" height="19" viewBox="0 0 24 19" fill="none" xmlns="http://www.w3.org/2000/svg">
<path d="M23.2709 6.764C21.7199 4.238 18.1919 0 11.9999 0C5.80793 0 2.27993 4.238 0.728929 6.764C0.249457 7.53951 -0.0045166 8.43324 -0.0045166 9.345C-0.0045166 10.2568 0.249457 11.1505 0.728929 11.926C2.27993 14.452 5.80793 18.69 11.9999 18.69C18.1919 18.69 21.7199 14.452 23.2709 11.926C23.7504 11.1505 24.0044 10.2568 24.0044 9.345C24.0044 8.43324 23.7504 7.53951 23.2709 6.764ZM21.5659 10.879C20.2339 13.045 17.2189 16.69 11.9999 16.69C6.78093 16.69 3.76593 13.045 2.43393 10.879C2.14906 10.418 1.99818 9.88687 1.99818 9.345C1.99818 8.80313 2.14906 8.27196 2.43393 7.811C3.76593 5.645 6.78093 2 11.9999 2C17.2189 2 20.2339 5.641 21.5659 7.811C21.8508 8.27196 22.0017 8.80313 22.0017 9.345C22.0017 9.88687 21.8508 10.418 21.5659 10.879Z" fill="black"/>
<path d="M11.9998 4.34498C11.0109 4.34498 10.0442 4.63822 9.22199 5.18763C8.39975 5.73704 7.75888 6.51793 7.38045 7.43156C7.00201 8.34519 6.90299 9.35053 7.09592 10.3204C7.28884 11.2903 7.76505 12.1813 8.46431 12.8805C9.16357 13.5798 10.0545 14.056 11.0244 14.2489C11.9943 14.4418 12.9996 14.3428 13.9133 13.9644C14.8269 13.5859 15.6078 12.9451 16.1572 12.1228C16.7066 11.3006 16.9998 10.3339 16.9998 9.34498C16.9983 8.01938 16.471 6.74854 15.5336 5.8112C14.5963 4.87386 13.3254 4.34657 11.9998 4.34498ZM11.9998 12.345C11.4065 12.345 10.8265 12.169 10.3331 11.8394C9.83979 11.5097 9.45527 11.0412 9.2282 10.493C9.00114 9.94485 8.94173 9.34165 9.05749 8.75971C9.17324 8.17777 9.45897 7.64322 9.87852 7.22366C10.2981 6.8041 10.8326 6.51838 11.4146 6.40262C11.9965 6.28687 12.5997 6.34628 13.1479 6.57334C13.6961 6.8004 14.1646 7.18492 14.4943 7.67827C14.8239 8.17162 14.9998 8.75163 14.9998 9.34498C14.9998 10.1406 14.6838 10.9037 14.1212 11.4663C13.5586 12.0289 12.7955 12.345 11.9998 12.345Z" fill="black"/>
</svg>
