<svg width="24" height="20" viewBox="0 0 24 20" fill="none" xmlns="http://www.w3.org/2000/svg">
<path d="M21 7.99969H18C17.4696 7.99969 16.9609 8.21041 16.5858 8.58548C16.2107 8.96055 16 9.46926 16 9.99969C16 10.5301 15.7893 11.0388 15.4142 11.4139C15.0391 11.789 14.5304 11.9997 14 11.9997H10C9.46957 11.9997 8.96086 11.789 8.58579 11.4139C8.21071 11.0388 8 10.5301 8 9.99969C8 9.46926 7.78929 8.96055 7.41421 8.58548C7.03914 8.21041 6.53043 7.99969 6 7.99969H3C2.20435 7.99969 1.44129 8.31576 0.87868 8.87837C0.31607 9.44098 0 10.204 0 10.9997V14.9997C0.00158786 16.3253 0.528882 17.5961 1.46622 18.5335C2.40356 19.4708 3.67441 19.9981 5 19.9997H19C20.3256 19.9981 21.5964 19.4708 22.5338 18.5335C23.4711 17.5961 23.9984 16.3253 24 14.9997V10.9997C24 10.204 23.6839 9.44098 23.1213 8.87837C22.5587 8.31576 21.7956 7.99969 21 7.99969ZM22 14.9997C22 15.7953 21.6839 16.5584 21.1213 17.121C20.5587 17.6836 19.7956 17.9997 19 17.9997H5C4.20435 17.9997 3.44129 17.6836 2.87868 17.121C2.31607 16.5584 2 15.7953 2 14.9997V10.9997C2 10.7345 2.10536 10.4801 2.29289 10.2926C2.48043 10.1051 2.73478 9.99969 3 9.99969H6C6 11.0606 6.42143 12.078 7.17157 12.8281C7.92172 13.5783 8.93913 13.9997 10 13.9997H14C15.0609 13.9997 16.0783 13.5783 16.8284 12.8281C17.5786 12.078 18 11.0606 18 9.99969H21C21.2652 9.99969 21.5196 10.1051 21.7071 10.2926C21.8946 10.4801 22 10.7345 22 10.9997V14.9997Z" fill="black"/>
<path d="M2.99992 5.99937H20.9999C21.2651 5.99937 21.5195 5.89401 21.707 5.70648C21.8946 5.51894 21.9999 5.26459 21.9999 4.99937C21.9999 4.73416 21.8946 4.4798 21.707 4.29227C21.5195 4.10473 21.2651 3.99937 20.9999 3.99937H2.99992C2.73471 3.99937 2.48035 4.10473 2.29282 4.29227C2.10528 4.4798 1.99992 4.73416 1.99992 4.99937C1.99992 5.26459 2.10528 5.51894 2.29282 5.70648C2.48035 5.89401 2.73471 5.99937 2.99992 5.99937Z" fill="black"/>
<path d="M2.99992 2H20.9999C21.2651 2 21.5195 1.89464 21.707 1.7071C21.8946 1.51957 21.9999 1.26521 21.9999 0.999998C21.9999 0.734782 21.8946 0.480429 21.707 0.292893C21.5195 0.105357 21.2651 0 20.9999 0H2.99992C2.73471 0 2.48035 0.105357 2.29282 0.292893C2.10528 0.480429 1.99992 0.734782 1.99992 0.999998C1.99992 1.26521 2.10528 1.51957 2.29282 1.7071C2.48035 1.89464 2.73471 2 2.99992 2Z" fill="black"/>
</svg>
