<svg width="24" height="24" viewBox="0 0 24 24" fill="none" xmlns="http://www.w3.org/2000/svg">
<path d="M13.8443 17.2665L10.5823 20.5285C9.63521 21.4503 8.3633 21.9621 7.04174 21.9533C5.72018 21.9444 4.45524 21.4156 3.5206 20.4812C2.58596 19.5468 2.05678 18.2821 2.04755 16.9605C2.03833 15.6389 2.54979 14.3669 3.47129 13.4195L6.73329 10.1546C6.9208 9.96691 7.02608 9.71247 7.02599 9.4472C7.0259 9.18193 6.92043 8.92757 6.73279 8.74006C6.54515 8.55255 6.29071 8.44726 6.02544 8.44736C5.76017 8.44745 5.5058 8.55292 5.31829 8.74056L2.05729 12.0056C0.73956 13.3239 -0.000468632 15.1118 2.22651e-07 16.9758C0.000469078 18.8398 0.741397 20.6273 2.05979 21.945C3.37818 23.2628 5.16604 24.0028 7.03006 24.0023C8.89407 24.0019 10.6816 23.2609 11.9993 21.9425L15.2613 18.6805C15.4434 18.4919 15.5442 18.2393 15.542 17.9771C15.5397 17.7149 15.4345 17.4641 15.2491 17.2787C15.0637 17.0933 14.8129 16.9881 14.5507 16.9859C14.2885 16.9836 14.0359 17.0844 13.8473 17.2665H13.8443Z" fill="black"/>
<path d="M21.9433 2.06102C21.2926 1.40584 20.5184 0.886303 19.6654 0.532521C18.8124 0.178738 17.8978 -0.00225646 16.9743 2.46408e-05C16.0514 -0.00242709 15.1372 0.178103 14.2844 0.531176C13.4317 0.884249 12.6574 1.40286 12.0063 2.05702L8.73935 5.32003C8.55171 5.50753 8.44624 5.7619 8.44615 6.02717C8.44605 6.29244 8.55134 6.54689 8.73885 6.73453C8.92636 6.92217 9.18072 7.02763 9.44599 7.02773C9.71126 7.02782 9.96571 6.92253 10.1533 6.73503L13.4183 3.47303C13.8839 3.00467 14.4377 2.63333 15.0478 2.38048C15.6578 2.12764 16.312 1.99833 16.9723 2.00002C17.9666 2.00035 18.9385 2.29546 19.765 2.84802C20.5916 3.40059 21.2358 4.18582 21.6162 5.10444C21.9966 6.02307 22.096 7.03385 21.9021 8.009C21.7081 8.98416 21.2293 9.87991 20.5264 10.583L17.2643 13.845C17.0767 14.0327 16.9713 14.2872 16.9713 14.5525C16.9713 14.8179 17.0767 15.0724 17.2643 15.26C17.452 15.4477 17.7065 15.5531 17.9718 15.5531C18.2372 15.5531 18.4917 15.4477 18.6793 15.26L21.9413 12C23.2574 10.6811 23.9967 8.89413 23.997 7.03094C23.9974 5.16775 23.2589 3.38046 21.9433 2.06102Z" fill="black"/>
<path d="M14.2924 8.2927L8.29245 14.2927C8.19694 14.3849 8.12076 14.4953 8.06835 14.6173C8.01594 14.7393 7.98835 14.8705 7.9872 15.0033C7.98604 15.1361 8.01135 15.2677 8.06163 15.3906C8.11191 15.5135 8.18616 15.6252 8.28005 15.7191C8.37395 15.813 8.4856 15.8872 8.60849 15.9375C8.73139 15.9878 8.86307 16.0131 8.99585 16.0119C9.12863 16.0108 9.25985 15.9832 9.38185 15.9308C9.50386 15.8784 9.6142 15.8022 9.70645 15.7067L15.7064 9.7067C15.8886 9.5181 15.9894 9.2655 15.9871 9.0033C15.9848 8.74111 15.8797 8.49029 15.6943 8.30488C15.5089 8.11948 15.258 8.01431 14.9959 8.01203C14.7337 8.00975 14.4811 8.11055 14.2924 8.2927Z" fill="black"/>
</svg>
