<svg width="24" height="18" viewBox="0 0 24 18" fill="none" xmlns="http://www.w3.org/2000/svg">
<path d="M7.00001 3.00031H23C23.2652 3.00031 23.5196 2.89495 23.7071 2.70742C23.8947 2.51988 24 2.26553 24 2.00031C24 1.73509 23.8947 1.48074 23.7071 1.29321C23.5196 1.10567 23.2652 1.00031 23 1.00031H7.00001C6.73479 1.00031 6.48044 1.10567 6.2929 1.29321C6.10536 1.48074 6.00001 1.73509 6.00001 2.00031C6.00001 2.26553 6.10536 2.51988 6.2929 2.70742C6.48044 2.89495 6.73479 3.00031 7.00001 3.00031Z" fill="black"/>
<path d="M23 7.9997H7.00001C6.73479 7.9997 6.48044 8.10506 6.2929 8.2926C6.10536 8.48014 6.00001 8.73449 6.00001 8.99971C6.00001 9.26493 6.10536 9.51928 6.2929 9.70682C6.48044 9.89436 6.73479 9.99971 7.00001 9.99971H23C23.2652 9.99971 23.5196 9.89436 23.7071 9.70682C23.8947 9.51928 24 9.26493 24 8.99971C24 8.73449 23.8947 8.48014 23.7071 8.2926C23.5196 8.10506 23.2652 7.9997 23 7.9997Z" fill="black"/>
<path d="M23 15H7.00001C6.73479 15 6.48044 15.1054 6.2929 15.2929C6.10536 15.4804 6.00001 15.7348 6.00001 16C6.00001 16.2652 6.10536 16.5196 6.2929 16.7071C6.48044 16.8947 6.73479 17 7.00001 17H23C23.2652 17 23.5196 16.8947 23.7071 16.7071C23.8947 16.5196 24 16.2652 24 16C24 15.7348 23.8947 15.4804 23.7071 15.2929C23.5196 15.1054 23.2652 15 23 15Z" fill="black"/>
<path d="M2 3.99999C3.10457 3.99999 4 3.10456 4 2C4 0.895429 3.10457 0 2 0C0.89543 0 0 0.895429 0 2C0 3.10456 0.89543 3.99999 2 3.99999Z" fill="black"/>
<path d="M2 11.0003C3.10457 11.0003 4 10.1049 4 9.00031C4 7.89574 3.10457 7.00031 2 7.00031C0.89543 7.00031 0 7.89574 0 9.00031C0 10.1049 0.89543 11.0003 2 11.0003Z" fill="black"/>
<path d="M2 17.9997C3.10457 17.9997 4 17.1043 4 15.9997C4 14.8951 3.10457 13.9997 2 13.9997C0.89543 13.9997 0 14.8951 0 15.9997C0 17.1043 0.89543 17.9997 2 17.9997Z" fill="black"/>
</svg>
