<svg width="24" height="24" viewBox="0 0 24 24" fill="none" xmlns="http://www.w3.org/2000/svg">
<path fill-rule="evenodd" clip-rule="evenodd" d="M12 24C13.3255 24 14.4 23.0232 14.4 21.8182C14.4 20.6132 13.3255 19.6364 12 19.6364C10.6745 19.6364 9.6 20.6132 9.6 21.8182C9.6 23.0232 10.6745 24 12 24Z" fill="black"/>
<path fill-rule="evenodd" clip-rule="evenodd" d="M12 4.36364C13.3255 4.36364 14.4 3.3868 14.4 2.18182C14.4 0.976833 13.3255 0 12 0C10.6745 0 9.6 0.976833 9.6 2.18182C9.6 3.3868 10.6745 4.36364 12 4.36364Z" fill="black"/>
<path fill-rule="evenodd" clip-rule="evenodd" d="M2.4 8.72727C3.72548 8.72727 4.8 7.75044 4.8 6.54545C4.8 5.34047 3.72548 4.36364 2.4 4.36364C1.07452 4.36364 0 5.34047 0 6.54545C0 7.75044 1.07452 8.72727 2.4 8.72727Z" fill="black"/>
<path fill-rule="evenodd" clip-rule="evenodd" d="M21.6 8.72727C22.9255 8.72727 24 7.75044 24 6.54545C24 5.34047 22.9255 4.36364 21.6 4.36364C20.2745 4.36364 19.2 5.34047 19.2 6.54545C19.2 7.75044 20.2745 8.72727 21.6 8.72727Z" fill="black"/>
<path fill-rule="evenodd" clip-rule="evenodd" d="M2.4 19.6364C3.72548 19.6364 4.8 18.6595 4.8 17.4545C4.8 16.2496 3.72548 15.2727 2.4 15.2727C1.07452 15.2727 0 16.2496 0 17.4545C0 18.6595 1.07452 19.6364 2.4 19.6364Z" fill="black"/>
<path fill-rule="evenodd" clip-rule="evenodd" d="M21.6 19.6364C22.9255 19.6364 24 18.6595 24 17.4545C24 16.2496 22.9255 15.2727 21.6 15.2727C20.2745 15.2727 19.2 16.2496 19.2 17.4545C19.2 18.6595 20.2745 19.6364 21.6 19.6364Z" fill="black"/>
</svg>
