<svg width="24" height="16" viewBox="0 0 24 16" fill="none" xmlns="http://www.w3.org/2000/svg">
<path d="M23 6.99939H1C0.447715 6.99939 0 7.44711 0 7.9994C0 8.55168 0.447715 8.9994 1 8.9994H23C23.5523 8.9994 24 8.55168 24 7.9994C24 7.44711 23.5523 6.99939 23 6.99939Z" fill="black"/>
<path d="M23 0H1C0.447715 0 0 0.447714 0 0.999998C0 1.55228 0.447715 2 1 2H23C23.5523 2 24 1.55228 24 0.999998C24 0.447714 23.5523 0 23 0Z" fill="black"/>
<path d="M23 13.9997H1C0.447715 13.9997 0 14.4474 0 14.9997C0 15.552 0.447715 15.9997 1 15.9997H23C23.5523 15.9997 24 15.552 24 14.9997C24 14.4474 23.5523 13.9997 23 13.9997Z" fill="black"/>
</svg>
