<svg width="18" height="24" viewBox="0 0 18 24" fill="none" xmlns="http://www.w3.org/2000/svg">
<path d="M3.5 0C2.57174 0 1.6815 0.368749 1.02513 1.02513C0.368749 1.6815 0 2.57174 0 3.5V20.5C1.95616e-08 21.4283 0.368749 22.3185 1.02513 22.9749C1.6815 23.6313 2.57174 24 3.5 24C4.42826 24 5.3185 23.6313 5.97487 22.9749C6.63125 22.3185 7 21.4283 7 20.5V3.5C7 2.57174 6.63125 1.6815 5.97487 1.02513C5.3185 0.368749 4.42826 0 3.5 0ZM5 20.5C5 20.8978 4.84196 21.2794 4.56066 21.5607C4.27936 21.842 3.89782 22 3.5 22C3.10218 22 2.72064 21.842 2.43934 21.5607C2.15804 21.2794 2 20.8978 2 20.5V3.5C2 3.10218 2.15804 2.72064 2.43934 2.43934C2.72064 2.15804 3.10218 2 3.5 2C3.89782 2 4.27936 2.15804 4.56066 2.43934C4.84196 2.72064 5 3.10218 5 3.5V20.5Z" fill="black"/>
<path d="M14.5002 0C13.5719 0 12.6817 0.368749 12.0253 1.02513C11.3689 1.6815 11.0002 2.57174 11.0002 3.5V20.5C11.0002 21.4283 11.3689 22.3185 12.0253 22.9749C12.6817 23.6313 13.5719 24 14.5002 24C15.4284 24 16.3186 23.6313 16.975 22.9749C17.6314 22.3185 18.0002 21.4283 18.0002 20.5V3.5C18.0002 2.57174 17.6314 1.6815 16.975 1.02513C16.3186 0.368749 15.4284 0 14.5002 0ZM16.0002 20.5C16.0002 20.8978 15.8421 21.2794 15.5608 21.5607C15.2795 21.842 14.898 22 14.5002 22C14.1023 22 13.7208 21.842 13.4395 21.5607C13.1582 21.2794 13.0002 20.8978 13.0002 20.5V3.5C13.0002 3.10218 13.1582 2.72064 13.4395 2.43934C13.7208 2.15804 14.1023 2 14.5002 2C14.898 2 15.2795 2.15804 15.5608 2.43934C15.8421 2.72064 16.0002 3.10218 16.0002 3.5V20.5Z" fill="black"/>
</svg>
