<svg width="24" height="22" viewBox="0 0 24 22" fill="none" xmlns="http://www.w3.org/2000/svg">
<path d="M23.0001 0.895124H13.0001C12.7349 0.895124 12.4805 1.00048 12.293 1.18802C12.1054 1.37555 12.0001 1.62991 12.0001 1.89512V5.16512L9.60007 1.00512C9.42493 0.699699 9.17228 0.445917 8.86763 0.269429C8.56298 0.0929407 8.21714 0 7.86507 0C7.51299 0 7.16716 0.0929407 6.86251 0.269429C6.55786 0.445917 6.3052 0.699699 6.13007 1.00512V1.00512L0.130068 11.3951C0.0423 11.5471 -0.00390625 11.7196 -0.00390625 11.8951C-0.00390625 12.0706 0.0423 12.2431 0.130068 12.3951C0.218173 12.5477 0.345037 12.6743 0.497814 12.7621C0.650592 12.8499 0.823858 12.8958 1.00007 12.8951H5.29007C5.09591 13.544 4.9982 14.2178 5.00007 14.8951C5.00007 16.7516 5.73757 18.5321 7.05032 19.8448C8.36308 21.1576 10.1436 21.8951 12.0001 21.8951C13.8566 21.8951 15.6371 21.1576 16.9498 19.8448C18.2626 18.5321 19.0001 16.7516 19.0001 14.8951C19.0019 14.2178 18.9042 13.544 18.7101 12.8951H23.0001C23.2653 12.8951 23.5196 12.7898 23.7072 12.6022C23.8947 12.4147 24.0001 12.1603 24.0001 11.8951V1.89512C24.0001 1.62991 23.8947 1.37555 23.7072 1.18802C23.5196 1.00048 23.2653 0.895124 23.0001 0.895124V0.895124ZM2.73007 10.8951L7.86007 2.00512L11.2901 7.89512C10.29 8.00641 9.32568 8.33201 8.46283 8.84972C7.59998 9.36742 6.85889 10.0651 6.29007 10.8951H2.73007ZM12.0001 19.8951C11.0112 19.8951 10.0445 19.6019 9.22222 19.0524C8.39997 18.503 7.75911 17.7222 7.38067 16.8085C7.00223 15.8949 6.90322 14.8896 7.09614 13.9197C7.28907 12.9498 7.76527 12.0588 8.46454 11.3596C9.1638 10.6603 10.0547 10.1841 11.0246 9.99119C11.9945 9.79826 12.9999 9.89728 13.9135 10.2757C14.8271 10.6542 15.608 11.295 16.1574 12.1173C16.7068 12.9395 17.0001 13.9062 17.0001 14.8951C17.0001 16.2212 16.4733 17.493 15.5356 18.4306C14.5979 19.3683 13.3262 19.8951 12.0001 19.8951V19.8951ZM22.0001 10.8951H17.7401C16.8319 9.59856 15.515 8.64429 14.0001 8.18511V2.89512H22.0001V10.8951Z" fill="black"/>
</svg>
