<svg width="20" height="24" viewBox="0 0 20 24" fill="none" xmlns="http://www.w3.org/2000/svg">
<path d="M10 15.0001C9.73479 15.0001 9.48043 14.8948 9.2929 14.7072C9.10536 14.5197 9 14.2653 9 14.0001V6.00012C9 5.7349 9.10536 5.48055 9.2929 5.29301C9.48043 5.10547 9.73479 5.00012 10 5.00012C10.2652 5.00012 10.5196 5.10547 10.7071 5.29301C10.8946 5.48055 11 5.7349 11 6.00012V14.0001C11 14.2653 10.8946 14.5197 10.7071 14.7072C10.5196 14.8948 10.2652 15.0001 10 15.0001ZM10.793 23.7601C12.953 22.8921 20 19.4791 20 12.0431V6.87212C20.0011 5.82113 19.6706 4.79659 19.0554 3.94443C18.4403 3.09227 17.5719 2.45596 16.574 2.12612L10.315 0.0511158C10.1107 -0.0178524 9.88934 -0.0178524 9.685 0.0511158L3.426 2.12612C2.42811 2.45596 1.55975 3.09227 0.944604 3.94443C0.329456 4.79659 -0.00110546 5.82113 2.7775e-06 6.87212V12.0431C2.7775e-06 18.6051 7.005 22.6191 9.153 23.6931C9.42468 23.8228 9.70836 23.9256 10 24.0001C10.2712 23.9447 10.5366 23.8643 10.793 23.7601ZM15.944 4.02412C16.5425 4.22253 17.0633 4.60449 17.4324 5.11575C17.8015 5.62701 18.0001 6.24156 18 6.87212V12.0431C18 18.2261 11.913 21.1541 10.047 21.9041C8.159 20.9601 2 17.4591 2 12.0431V6.87212C1.99992 6.24156 2.19852 5.62701 2.56761 5.11575C2.93669 4.60449 3.45748 4.22253 4.056 4.02412L10 2.05412L15.944 4.02412ZM10 17.0001C9.80222 17.0001 9.60888 17.0588 9.44443 17.1686C9.27998 17.2785 9.15181 17.4347 9.07612 17.6174C9.00044 17.8002 8.98063 18.0012 9.01922 18.1952C9.0578 18.3892 9.15304 18.5674 9.2929 18.7072C9.43275 18.8471 9.61093 18.9423 9.80491 18.9809C9.99889 19.0195 10.2 18.9997 10.3827 18.924C10.5654 18.8483 10.7216 18.7201 10.8315 18.5557C10.9414 18.3912 11 18.1979 11 18.0001C11 17.7349 10.8946 17.4805 10.7071 17.293C10.5196 17.1055 10.2652 17.0001 10 17.0001Z" fill="currentColor"/>
</svg>
