<svg width="24" height="24" viewBox="0 0 24 24" fill="none" xmlns="http://www.w3.org/2000/svg">
<path d="M12 6.00001C11.2044 6.00001 10.4413 6.31608 9.87869 6.87869C9.31608 7.4413 9.00001 8.20436 9.00001 9.00001V21C9.00001 21.7957 9.31608 22.5587 9.87869 23.1213C10.4413 23.6839 11.2044 24 12 24C12.7957 24 13.5587 23.6839 14.1213 23.1213C14.6839 22.5587 15 21.7957 15 21V9.00001C15 8.20436 14.6839 7.4413 14.1213 6.87869C13.5587 6.31608 12.7957 6.00001 12 6.00001ZM13 21C13 21.2652 12.8947 21.5196 12.7071 21.7071C12.5196 21.8947 12.2652 22 12 22C11.7348 22 11.4804 21.8947 11.2929 21.7071C11.1054 21.5196 11 21.2652 11 21V9.00001C11 8.73479 11.1054 8.48044 11.2929 8.2929C11.4804 8.10536 11.7348 8.00001 12 8.00001C12.2652 8.00001 12.5196 8.10536 12.7071 8.2929C12.8947 8.48044 13 8.73479 13 9.00001V21Z" fill="black"/>
<path d="M21 0C20.2044 0 19.4413 0.31607 18.8787 0.87868C18.3161 1.44129 18 2.20435 18 3V21C18 21.7956 18.3161 22.5587 18.8787 23.1213C19.4413 23.6839 20.2044 24 21 24C21.7957 24 22.5587 23.6839 23.1213 23.1213C23.6839 22.5587 24 21.7956 24 21V3C24 2.20435 23.6839 1.44129 23.1213 0.87868C22.5587 0.31607 21.7957 0 21 0ZM22 21C22 21.2652 21.8947 21.5196 21.7071 21.7071C21.5196 21.8946 21.2652 22 21 22C20.7348 22 20.4804 21.8946 20.2929 21.7071C20.1054 21.5196 20 21.2652 20 21V3C20 2.73478 20.1054 2.48043 20.2929 2.29289C20.4804 2.10536 20.7348 2 21 2C21.2652 2 21.5196 2.10536 21.7071 2.29289C21.8947 2.48043 22 2.73478 22 3V21Z" fill="black"/>
<path d="M3 12C2.20435 12 1.44129 12.3161 0.87868 12.8787C0.31607 13.4413 0 14.2044 0 15V21C0 21.7957 0.31607 22.5587 0.87868 23.1213C1.44129 23.6839 2.20435 24 3 24C3.79565 24 4.55871 23.6839 5.12132 23.1213C5.68393 22.5587 6 21.7957 6 21V15C6 14.2044 5.68393 13.4413 5.12132 12.8787C4.55871 12.3161 3.79565 12 3 12Z" fill="black"/>
</svg>
