<svg width="24" height="24" viewBox="0 0 24 24" fill="none" xmlns="http://www.w3.org/2000/svg">
<path d="M23.8274 8.60401C23.6229 7.95291 23.2142 7.38492 22.6619 6.98405C22.1095 6.58317 21.4428 6.37068 20.7604 6.37801H16.3914L15.0644 2.24201C14.8557 1.59097 14.4457 1.02303 13.8934 0.620078C13.3411 0.21713 12.6751 0 11.9914 0C11.3077 0 10.6417 0.21713 10.0894 0.620078C9.53714 1.02303 9.12708 1.59097 8.9184 2.24201L7.5914 6.37801H3.2224C2.54215 6.37898 1.8796 6.5949 1.32938 6.99492C0.779172 7.39494 0.369445 7.9586 0.158725 8.6054C-0.0519941 9.2522 -0.0529268 9.94904 0.15606 10.5964C0.365048 11.2438 0.773265 11.8085 1.3224 12.21L4.8784 14.81L3.5264 18.997C3.30792 19.6464 3.30515 20.349 3.51851 21.0001C3.73188 21.6512 4.14995 22.2159 4.7104 22.61C5.26126 23.0168 5.9288 23.2347 6.61356 23.2313C7.29832 23.2279 7.96365 23.0033 8.5104 22.591L11.9914 20.029L15.4734 22.588C16.0233 22.9925 16.6872 23.2121 17.3698 23.2155C18.0523 23.2188 18.7184 23.0056 19.2722 22.6065C19.8259 22.2075 20.2389 21.6431 20.4517 20.9945C20.6645 20.3459 20.6661 19.6466 20.4564 18.997L19.1044 14.81L22.6644 12.21C23.2198 11.8136 23.6328 11.2488 23.8423 10.5994C24.0517 9.94991 24.0465 9.25027 23.8274 8.60401ZM21.4844 10.595L17.3404 13.624C17.1702 13.7482 17.0435 13.9229 16.9785 14.1233C16.9135 14.3238 16.9135 14.5396 16.9784 14.74L18.5534 19.61C18.6331 19.857 18.6324 20.1229 18.5515 20.3695C18.4705 20.6161 18.3134 20.8307 18.1028 20.9824C17.8922 21.1341 17.639 21.2151 17.3794 21.2138C17.1199 21.2124 16.8674 21.1289 16.6584 20.975L12.5834 17.975C12.4118 17.8489 12.2044 17.781 11.9914 17.781C11.7784 17.781 11.571 17.8489 11.3994 17.975L7.3244 20.975C7.11549 21.1309 6.86234 21.2163 6.60167 21.2186C6.341 21.221 6.08634 21.1403 5.87463 20.9882C5.66292 20.8361 5.50515 20.6205 5.4242 20.3727C5.34325 20.1249 5.34332 19.8578 5.4244 19.61L7.0044 14.74C7.06932 14.5396 7.06927 14.3238 7.00427 14.1233C6.93926 13.9229 6.81261 13.7482 6.6424 13.624L2.4984 10.595C2.28971 10.4422 2.13464 10.2274 2.05535 9.98116C1.97605 9.73495 1.97659 9.46999 2.05689 9.22411C2.13718 8.97823 2.29313 8.76402 2.50245 8.61207C2.71176 8.46011 2.96375 8.3782 3.2224 8.37801H8.3224C8.53412 8.37801 8.74037 8.31081 8.91145 8.18609C9.08253 8.06137 9.20962 7.88557 9.2744 7.68401L10.8244 2.85301C10.904 2.6058 11.0599 2.3902 11.2698 2.23726C11.4797 2.08432 11.7327 2.00192 11.9924 2.00192C12.2521 2.00192 12.5051 2.08432 12.715 2.23726C12.9249 2.3902 13.0808 2.6058 13.1604 2.85301L14.7104 7.68401C14.7752 7.88557 14.9023 8.06137 15.0734 8.18609C15.2444 8.31081 15.4507 8.37801 15.6624 8.37801H20.7624C21.0211 8.3782 21.273 8.46011 21.4824 8.61207C21.6917 8.76402 21.8476 8.97823 21.9279 9.22411C22.0082 9.46999 22.0088 9.73495 21.9295 9.98116C21.8502 10.2274 21.6951 10.4422 21.4864 10.595H21.4844Z" fill="black"/>
</svg>
