<svg width="20" height="24" viewBox="0 0 20 24" fill="none" xmlns="http://www.w3.org/2000/svg">
<path d="M15 8.00087H5V7.00087C4.99969 5.89228 5.36782 4.81501 6.04652 3.93845C6.72521 3.06188 7.67597 2.43573 8.74933 2.15843C9.82269 1.88113 10.9578 1.96842 11.9761 2.40656C12.9944 2.8447 13.8383 3.60885 14.375 4.57887C14.4388 4.69371 14.5245 4.79487 14.6274 4.87657C14.7302 4.95827 14.8481 5.01892 14.9744 5.05504C15.1007 5.09116 15.2329 5.10205 15.3634 5.0871C15.4939 5.07214 15.6202 5.03163 15.735 4.96787C15.8498 4.90412 15.951 4.81836 16.0327 4.71551C16.1144 4.61266 16.175 4.49473 16.2112 4.36844C16.2473 4.24215 16.2582 4.10998 16.2432 3.97949C16.2283 3.84899 16.1878 3.72271 16.124 3.60787C15.3723 2.25019 14.1907 1.18079 12.765 0.567786C11.3393 -0.04522 9.75036 -0.167078 8.24787 0.221368C6.74538 0.609813 5.41457 1.48654 4.46463 2.71372C3.51469 3.94091 2.99948 5.44898 3 7.00087V8.42487C2.10936 8.81358 1.35129 9.4534 0.818499 10.2661C0.285705 11.0788 0.00127838 12.0291 0 13.0009V19.0009C0.00158786 20.3265 0.528882 21.5973 1.46622 22.5347C2.40356 23.472 3.67441 23.9993 5 24.0009H15C16.3256 23.9993 17.5964 23.472 18.5338 22.5347C19.4711 21.5973 19.9984 20.3265 20 19.0009V13.0009C19.9984 11.6753 19.4711 10.4044 18.5338 9.46709C17.5964 8.52975 16.3256 8.00246 15 8.00087ZM18 19.0009C18 19.7965 17.6839 20.5596 17.1213 21.1222C16.5587 21.6848 15.7956 22.0009 15 22.0009H5C4.20435 22.0009 3.44129 21.6848 2.87868 21.1222C2.31607 20.5596 2 19.7965 2 19.0009V13.0009C2 12.2052 2.31607 11.4422 2.87868 10.8796C3.44129 10.3169 4.20435 10.0009 5 10.0009H15C15.7956 10.0009 16.5587 10.3169 17.1213 10.8796C17.6839 11.4422 18 12.2052 18 13.0009V19.0009Z" fill="black"/>
<path d="M10 14.0006C9.7348 14.0006 9.48044 14.106 9.29291 14.2935C9.10537 14.481 9.00001 14.7354 9.00001 15.0006V17.0006C9.00001 17.2658 9.10537 17.5202 9.29291 17.7077C9.48044 17.8952 9.7348 18.0006 10 18.0006C10.2652 18.0006 10.5196 17.8952 10.7071 17.7077C10.8947 17.5202 11 17.2658 11 17.0006V15.0006C11 14.7354 10.8947 14.481 10.7071 14.2935C10.5196 14.106 10.2652 14.0006 10 14.0006Z" fill="black"/>
</svg>
