<svg width="24" height="23" viewBox="0 0 24 23" fill="none" xmlns="http://www.w3.org/2000/svg">
<path d="M22.9 7.95503C22.2246 7.61275 21.4133 7.68409 20.808 8.13902L18.975 9.50003C18.7151 6.94666 16.5666 5.00327 14 5.00003H13.915L9.79303 0.879015C9.23208 0.314124 8.46816 -0.00246986 7.67203 1.45119e-05H0.999984C0.447703 1.45119e-05 0 0.447765 0 1.00005C0 1.55233 0.447703 2.00003 0.999984 2.00003H7.67198C7.93706 2.00073 8.19112 2.10601 8.379 2.29305L11.086 5.00003H5.00002C2.23997 5.00336 0.00332813 7.24 0 10V18.0001C0.00332813 20.7601 2.23997 22.9968 5.00002 23H14C16.5666 22.9968 18.7151 21.0534 18.975 18.5L20.805 19.864C21.6886 20.5268 22.9423 20.3477 23.605 19.4641C23.8646 19.1179 24.005 18.6968 24.005 18.2641V9.74303C24.0076 8.98511 23.5791 8.29169 22.9 7.95503ZM17 18C17 19.6569 15.6569 21 14 21H5.00002C3.34317 21 2.00002 19.6569 2.00002 18V10C2.00002 8.3432 3.34317 7.00005 5.00002 7.00005H14C15.6569 7.00005 17 8.3432 17 10V18ZM22 18.257L19 16.021V11.9791L22 9.74308V18.257Z" fill="black"/>
</svg>
